<svg xmlns="http://www.w3.org/2000/svg" fill="#ff6000" viewBox="0 0 370 320">
  <path d="M149 10.4c28.3-2.1 60.2-1 92.8-1 29.2 0 67.8-4.2 88.1 3.8a44 44 0 0 1 29.4 49.3c-1.5 13.4-10.6 27.6-15.1 38.8L296.8 216c-22.4 54.2-73.3 97-149.7 91.9a148.1 148.1 0 0 1-96.6-46.5A143.2 143.2 0 0 1 9.7 159.1 149.3 149.3 0 0 1 149 10.4m174.3 36c2.6-26.7-39.4-29.1-38.8-1h14.2c-2.2-12.3 9.6-12 11.3-3.8 3.7 17.5-32.3 31.8-26.5 53.1 13.6 0 27.4-.3 39.8 1 1.5-2.2 1.5-9.3 0-11.4h-24.6c7-10.6 23-21.8 24.6-38M72.3 74a111.5 111.5 0 0 0-34.2 72A120 120 0 0 0 97 263.3c34 20.4 81.5 23.4 119.3 2.9a118.4 118.4 0 0 0 62.6-87.2c7.8-46.6-13.7-89-37-109.9a120.9 120.9 0 0 0-97.6-30.3 115.6 115.6 0 0 0-72 35"/>
  <path d="M118.7 70h43.5c15.4 44.8 34 86.1 49.3 130.8a145 145 0 0 0 22.8-7.6c4.5 6.9 5.2 17.6 9.4 24.7-15 7.3-33.2 11.6-51.1 16-8.9-27-20-52-29.4-78.6-16.9 23-31 48.6-47.4 72H83.6c-.3-4.5 3.3-9.2 5.7-13.2 18.6-31 40-65.7 58.7-97.6-1.6-7.9-5.5-13.5-7.5-20.9h-21.8V70.1z"/>
</svg>